# xmcd
#
# Track frame offsets:
#	150
#	11813
#	24523
#	35917
#	48125
#	59178
#	70124
#	82624
#	94585
#	106329
#	118626
#	129570
#	140447
#	150466
#	160885
#	172567
#	184996
#	195814
#	207845
#	219889
#	230190
#	243185
#	254327
#	265190
#	275838
#
# Disc length: 3827 seconds
#
# Revision: 1
# Processed by: cddbd v1.5.2PL0 Copyright (c) Steve Scherf et al.
# Submitted via: audiograbber 1.83.01
#
DISCID=550ef119
DTITLE=Don Reno, Red Smiley and The Tennessee Cutups - Bluegrass Big Three - CD3
DYEAR=2010
DGENRE=Bluegrass
TTITLE0=I'm Using My Bible For A Roadmap
TTITLE1=Crazy Finger Blues
TTITLE2=There's Another Baby Waiting For Me Down The Line
TTITLE3=Maybe You Will Change Your Mind
TTITLE4=Tennessee Cut-Up Breakdown
TTITLE5=I'm Gone, Long Gone
TTITLE6=I'm The Talk Of The Town
TTITLE7=Choking The Strings
TTITLE8=Tally-Ho!
TTITLE9=Your Tears Are Just Interest On The Loan
TTITLE10=Dixie Breakdown
TTITLE11=Charlotte Breakdown
TTITLE12=I'm The Biggest Liar In Town
TTITLE13=Barefoot Nellie
TTITLE14=Hen Scratchin' Stomp
TTITLE15=Double Banjo Blues
TTITLE16=Home Sweet Home
TTITLE17=Reno Ride
TTITLE18=Banjo Riff
TTITLE19=Green Mountain Hop
TTITLE20=Lonesome Wind Blues
TTITLE21=Remington Ride
TTITLE22=Cumberland Gap
TTITLE23=Richmond Ruckus
TTITLE24=Country Boy Rock 'n' Roll
EXTD=CD 3 der Zusammenstellung Bluegrass Big Three
EXTT0=
EXTT1=
EXTT2=
EXTT3=
EXTT4=
EXTT5=
EXTT6=
EXTT7=
EXTT8=
EXTT9=
EXTT10=
EXTT11=
EXTT12=
EXTT13=
EXTT14=
EXTT15=
EXTT16=
EXTT17=
EXTT18=
EXTT19=
EXTT20=
EXTT21=
EXTT22=
EXTT23=
EXTT24=
PLAYORDER=
